<?xml version="1.0" encoding="utf-8"?>
<!-- Generator: Adobe Illustrator 25.3.1, SVG Export Plug-In . SVG Version: 6.00 Build 0)  -->
<svg version="1.1" id="Capa_1" xmlns="http://www.w3.org/2000/svg" xmlns:xlink="http://www.w3.org/1999/xlink" x="0px" y="0px"
	 viewBox="0 0 122.2 122.2" style="enable-background:new 0 0 122.2 122.2;" xml:space="preserve">
<style type="text/css">
	.st0{fill-rule:evenodd;clip-rule:evenodd;fill:#8383FF;}
	.st1{fill-rule:evenodd;clip-rule:evenodd;fill:#BFC3FF;}
	.st2{fill-rule:evenodd;clip-rule:evenodd;fill:#78BDF9;}
	.st3{fill-rule:evenodd;clip-rule:evenodd;fill:#95F7FF;}
	.st4{fill-rule:evenodd;clip-rule:evenodd;fill:#F17781;}
	.st5{fill:#5D66B5;}
</style>
<g id="_04" transform="translate(-9.77 -9.775)">
	<path id="Trazado_37" class="st0" d="M70.9,31.2c5.3,0,9.5-4.3,9.5-9.5c0-0.6-0.1-1.3-0.2-1.9c-1.1-5.2-6.1-8.5-11.3-7.4
		c-3.7,0.8-6.7,3.7-7.4,7.4c-0.1,0.6-0.2,1.3-0.2,1.9C61.3,27,65.6,31.2,70.9,31.2z"/>
	<path id="Trazado_38" class="st1" d="M65.1,29.3c-2.4-1.8-3.8-4.6-3.8-7.6c0-0.6,0.1-1.3,0.2-1.9h-5c-2.6,0-4.8,2.1-4.8,4.8v4.8
		L65.1,29.3z"/>
	<path id="Trazado_39" class="st1" d="M80.4,21.7c0,3-1.4,5.8-3.8,7.6H90v-4.8c0-2.6-2.1-4.8-4.8-4.8h-5
		C80.4,20.4,80.4,21.1,80.4,21.7z"/>
	<path id="Trazado_40" class="st1" d="M47.7,45.1c0-3.4-2.8-6.2-6.2-6.2s-6.2,2.8-6.2,6.2l0,0v3.1c0,3.4,2.8,6.2,6.2,6.2
		s6.2-2.8,6.2-6.2V45.1z"/>
	<path id="Trazado_41" class="st2" d="M46.1,52.3c-2.3,2.5-6.1,2.8-8.7,0.5c-0.2-0.2-0.4-0.3-0.5-0.5c-3.8,1.8-6.2,5.6-6.2,9.8v3.1
		h21.6V62C52.3,57.9,49.9,54.1,46.1,52.3z"/>
	<path id="Trazado_42" class="st1" d="M47.7,80.9c0-3.4-2.8-6.2-6.2-6.2s-6.2,2.8-6.2,6.2V84c0,3.4,2.8,6.2,6.2,6.2s6.2-2.8,6.2-6.2
		V80.9z"/>
	<path id="Trazado_43" class="st0" d="M46.1,88.1c-2.3,2.5-6.1,2.8-8.7,0.5c-0.2-0.2-0.4-0.3-0.5-0.5c-3.8,1.8-6.2,5.6-6.2,9.8v3.1
		h21.6v-3.1C52.3,93.7,49.9,89.9,46.1,88.1z"/>
	<path id="Trazado_44" class="st1" d="M106.4,45.1c0-3.4-2.8-6.2-6.2-6.2S94,41.6,94,45.1l0,0v3.1c0,3.4,2.8,6.2,6.2,6.2
		s6.2-2.8,6.2-6.2V45.1z"/>
	<path id="Trazado_45" class="st3" d="M104.8,52.3c-2.3,2.5-6.1,2.8-8.7,0.5c-0.2-0.2-0.4-0.3-0.5-0.5c-3.8,1.8-6.2,5.6-6.2,9.8v3.1
		H111V62C111,57.9,108.6,54.1,104.8,52.3L104.8,52.3z"/>
	<path id="Trazado_46" class="st1" d="M106.4,80.9c0-3.4-2.8-6.2-6.2-6.2S94,77.4,94,80.9V84c0,3.4,2.8,6.2,6.2,6.2s6.2-2.8,6.2-6.2
		V80.9z"/>
	<path id="Trazado_47" class="st4" d="M104.8,88.1c-2.3,2.5-6.1,2.8-8.7,0.5c-0.2-0.2-0.4-0.3-0.5-0.5c-3.8,1.8-6.2,5.6-6.2,9.8v3.1
		H111v-3.1C111,93.7,108.6,89.9,104.8,88.1z"/>
	<path id="Trazado_48" class="st0" d="M70.9,100.9H12.2v4.8c0,2.6,2.1,4.8,4.8,4.8H111v-9.5C111,100.9,70.9,100.9,70.9,100.9z"/>
	<path id="Trazado_49" class="st1" d="M111,100.9v9.5h13.8c2.6,0,4.8-2.1,4.8-4.8v-4.8C129.6,100.9,111,100.9,111,100.9z"/>
	<path id="Trazado_50" class="st4" d="M52.3,65.1h18.6V31.2c-2.1,0-4.1-0.7-5.7-1.9H16.9c-2.6,0-4.8,2.1-4.8,4.8v31h18.5V62
		c0-4.2,2.4-8,6.2-9.8c-1-1.1-1.6-2.6-1.6-4.1v-3.1c0-3.4,2.8-6.2,6.2-6.2s6.2,2.8,6.2,6.2l0,0v3.1c0,1.5-0.6,3-1.6,4.1
		c3.8,1.8,6.2,5.6,6.2,9.8C52.3,62,52.3,65.1,52.3,65.1z"/>
	<path id="Trazado_51" class="st3" d="M70.9,65.1H12.2v35.8h18.5v-3.1c0-4.2,2.4-8,6.2-9.8c-1-1.1-1.6-2.6-1.6-4.1v-3.1
		c0-3.4,2.8-6.2,6.2-6.2s6.2,2.8,6.2,6.2V84c0,1.5-0.6,3-1.6,4.1c3.8,1.8,6.2,5.6,6.2,9.8v3.1h18.6V65.1z"/>
	<path id="Trazado_52" class="st0" d="M70.9,31.2v33.9h18.5V62c0-4.2,2.4-8,6.2-9.8c-1-1.1-1.6-2.6-1.6-4.1v-3.1
		c0-3.4,2.8-6.2,6.2-6.2s6.2,2.8,6.2,6.2l0,0v3.1c0,1.5-0.6,3-1.6,4.1c3.8,1.8,6.2,5.6,6.2,9.8v3.1h18.6v-31c0-2.6-2.1-4.8-4.8-4.8
		H76.6C74.9,30.6,72.9,31.3,70.9,31.2L70.9,31.2z"/>
	<path id="Trazado_53" class="st2" d="M89.4,65.1H70.9v35.8h18.5v-3.1c0-4.2,2.4-8,6.2-9.8C94.6,87,94,85.5,94,84v-3.1
		c0-3.4,2.8-6.2,6.2-6.2s6.2,2.8,6.2,6.2V84c0,1.5-0.6,3-1.6,4.1c3.8,1.8,6.2,5.6,6.2,9.7v3.1h18.6V65.1H89.4z"/>
	<path id="Trazado_54" class="st1" d="M58.8,110.5H83l4.7,19.1H54L58.8,110.5z"/>
	<path id="Trazado_55" class="st5" d="M124.8,27H92.3v-2.4c0-4-3.2-7.2-7.2-7.2H82c-2.4-6.1-9.3-9.2-15.4-6.8
		c-3.1,1.2-5.6,3.7-6.8,6.8h-3.2c-4,0-7.2,3.2-7.2,7.2V27H16.9c-4,0-7.2,3.2-7.2,7.2v71.6c0,4,3.2,7.2,7.2,7.2h38.8l-3.6,14.3h-2.8
		c-1.3-0.1-2.5,0.9-2.5,2.2c-0.1,1.3,0.9,2.5,2.2,2.5c0.1,0,0.2,0,0.3,0h43c1.3-0.1,2.3-1.2,2.2-2.5c-0.1-1.2-1-2.2-2.2-2.2h-2.8
		L86,112.9h38.8c4,0,7.2-3.2,7.2-7.2V34.1C131.9,30.2,128.7,27,124.8,27z M104,84c0,2.1-1.7,3.8-3.8,3.8s-3.8-1.7-3.8-3.8v-3.1
		c0-2.1,1.7-3.8,3.8-3.8s3.8,1.7,3.8,3.8V84z M95.3,91c2.9,2,6.8,2,9.7,0c2.2,1.6,3.6,4.1,3.6,6.9v0.7H91.8v-0.7
		C91.8,95.1,93.1,92.6,95.3,91L95.3,91z M108.1,87.3c0.4-1.1,0.7-2.2,0.7-3.3v-3.1c0-4.7-3.8-8.6-8.6-8.6c-4.7,0-8.6,3.8-8.6,8.6V84
		c0,1.1,0.2,2.3,0.7,3.3C89,89.8,87,93.7,87,97.8v0.7H73.2V86.6c0.1-1.3-0.9-2.5-2.2-2.5s-2.5,0.9-2.5,2.2c0,0.1,0,0.2,0,0.3v11.9
		H54.7v-0.7c0-4.2-2-8.1-5.3-10.6c0.4-1,0.7-2.2,0.7-3.3v-3.1c-0.2-4.7-4.1-8.4-8.9-8.3c-4.5,0.2-8.1,3.8-8.3,8.3V84
		c0,1.1,0.2,2.3,0.7,3.3c-3.3,2.5-5.3,6.4-5.3,10.6v0.7H14.5v-31h112.7v31h-13.8v-0.7C113.4,93.7,111.5,89.8,108.1,87.3L108.1,87.3z
		 M45.3,84c0,2.1-1.7,3.8-3.8,3.8c-2.1,0-3.8-1.7-3.8-3.8v-3.1c0-2.1,1.7-3.8,3.8-3.8s3.8,1.7,3.8,3.8L45.3,84z M36.7,91
		c2.9,2,6.8,2,9.7,0c2.2,1.6,3.6,4.1,3.5,6.9v0.7H33.1v-0.7C33.1,95.1,34.4,92.6,36.7,91z M45.3,48.1c0,2.1-1.7,3.8-3.8,3.8
		s-3.8-1.7-3.8-3.8c0,0,0,0,0,0v-3.1c0-2.1,1.7-3.8,3.8-3.8s3.8,1.7,3.8,3.8L45.3,48.1z M36.7,55.1c2.9,2,6.8,2,9.7,0
		c2.2,1.6,3.6,4.1,3.5,6.9v0.7H33.1V62C33.1,59.3,34.4,56.7,36.7,55.1z M104,48.1c0,2.1-1.7,3.8-3.8,3.8s-3.8-1.7-3.8-3.8l0,0v-3.1
		c0-2.1,1.7-3.8,3.8-3.8s3.8,1.7,3.8,3.8V48.1z M95.4,55.1c2.9,2,6.8,2,9.7,0c2.2,1.6,3.6,4.1,3.6,6.9v0.7H91.8V62
		C91.8,59.3,93.1,56.7,95.4,55.1z M127.2,34.1v28.7h-13.8V62c0-4.2-2-8.1-5.3-10.6c0.4-1.1,0.7-2.2,0.7-3.3v-3.1
		c0-4.7-3.8-8.6-8.6-8.6c-4.7,0-8.6,3.8-8.6,8.6v3.1c0,1.1,0.2,2.3,0.7,3.3C89,54,87,57.9,87,62v0.7H73.2V33.4
		c1.5-0.3,2.8-0.9,4.1-1.7h47.5C126.1,31.7,127.2,32.8,127.2,34.1L127.2,34.1z M87.6,24.6V27h-6c0.7-1.5,1.1-3.1,1.2-4.8h2.4
		C86.5,22.2,87.5,23.3,87.6,24.6L87.6,24.6z M78,21.7c0,4-3.2,7.2-7.2,7.2s-7.2-3.2-7.2-7.2c0-4,3.2-7.2,7.2-7.2
		C74.8,14.5,78,17.7,78,21.7L78,21.7z M54.2,27v-2.4c0-1.3,1.1-2.4,2.4-2.4H59c0,1.7,0.4,3.3,1.2,4.8H54.2z M14.5,34.1
		c0-1.3,1.1-2.4,2.4-2.4h47.5c1.2,0.8,2.6,1.4,4.1,1.7v29.4H54.7V62c0-4.2-2-8.1-5.3-10.6c0.5-1.1,0.7-2.2,0.7-3.3v-3.1
		c-0.2-4.7-4.1-8.4-8.9-8.3c-4.5,0.2-8.1,3.8-8.3,8.3v3.1c0,1.1,0.2,2.3,0.7,3.3c-3.3,2.5-5.3,6.4-5.3,10.6v0.7H14.5V34.1z
		 M14.5,105.7v-2.4h94.1v4.8H16.9C15.6,108.1,14.5,107,14.5,105.7z M84.6,127.2H57.1l3.5-14.3h20.4L84.6,127.2z M124.8,108.1h-11.4
		v-4.8h13.8v2.4C127.2,107,126.1,108.1,124.8,108.1z"/>
	<path id="Trazado_56" class="st5" d="M70.9,24.1c1.3-0.1,2.3-1.2,2.2-2.5c-0.1-1.2-1-2.2-2.2-2.2l0,0c-1.3-0.1-2.5,0.9-2.5,2.2
		c-0.1,1.3,0.9,2.5,2.2,2.5C70.7,24.1,70.8,24.1,70.9,24.1z"/>
	<path id="Trazado_57" class="st5" d="M70.9,73.5c-1.3,0-2.4,1.1-2.4,2.4c0,1.3,1.1,2.4,2.4,2.4c1.3,0,2.4-1.1,2.4-2.4c0,0,0,0,0,0
		l0,0C73.3,74.6,72.2,73.5,70.9,73.5z"/>
</g>
</svg>
